<svg width="259" height="69" viewBox="0 0 259 69" fill="none" xmlns="http://www.w3.org/2000/svg">
<path fill-rule="evenodd" clip-rule="evenodd" d="M113.422 67.6343L120.319 48.6509H124.143C129.06 48.6509 133.635 47.2511 137.664 44.4172C138.005 44.2124 138.312 43.9734 138.62 43.7344H153.028L155.316 37.3497H144.322C145.107 36.0181 145.79 34.5841 146.336 33.0477L148.453 27.2434H166.344C168.085 27.2434 169.485 27.9604 170.475 29.3944C171.465 30.8284 171.67 32.3648 171.055 34.0378L166.753 45.8512C166.002 47.8657 164.773 49.5045 163.066 50.6995C161.325 51.8945 159.413 52.5091 157.296 52.5091H134.045L128.548 67.6343H113.422L113.422 67.6343ZM164.193 67.6343L176.484 33.9012C177.201 31.8527 178.43 30.2138 180.172 29.0188C181.879 27.8238 183.825 27.2434 186.01 27.2434H224.386L209.705 67.6343H194.477L200.008 52.509H184.849L179.352 67.6343H164.193V67.6343ZM190.38 37.3498L188.059 43.7344H203.218L205.54 37.3498H190.38V37.3498ZM230.396 27.3117L215.714 67.6343H246.784C251.735 67.6343 255.969 64.6639 257.642 60.0205L258.529 57.5964H234.527L243.916 31.7503C244.326 30.6918 244.155 29.6334 243.541 28.7116C242.892 27.7897 241.936 27.3117 240.809 27.3117H230.396L230.396 27.3117Z" fill="white"/>
<path fill-rule="evenodd" clip-rule="evenodd" d="M76.1383 0.680237H140.839C143.775 0.680237 146.097 1.90938 147.804 4.33351C149.477 6.75765 149.818 9.35251 148.794 12.1522L141.488 32.1257C140.224 35.6083 138.176 38.3397 135.239 40.3541C132.337 42.3686 129.094 43.3929 125.475 43.3929H93.4146L98.8091 28.609H118.305L122.163 17.7858H69.9243L76.1383 0.680237V0.680237Z" fill="white"/>
<path fill-rule="evenodd" clip-rule="evenodd" d="M36.8742 0.680237C33.1867 0.680237 29.909 1.70452 27.0069 3.71894C24.1048 5.73337 22.022 8.46479 20.7588 11.9474L-6.10352e-05 68.9999H44.1124L50.3264 51.8944H31.9234L44.2831 17.7858H62.7202L68.9342 0.680237H36.8742V0.680237Z" fill="white"/>
<path fill-rule="evenodd" clip-rule="evenodd" d="M60.6035 43.3929L51.3166 69H68.7977C73.7484 69 77.9821 66.0296 79.6893 61.3862L86.2106 43.3929L91.6051 28.6091H51.5556L46.1611 43.3929H60.6035L60.6035 43.3929Z" fill="white"/>
</svg>
