<svg width="76" height="22" viewBox="0 0 76 22" fill="none" xmlns="http://www.w3.org/2000/svg">
<path fill-rule="evenodd" clip-rule="evenodd" d="M33.3601 20.605L35.3801 15.045H36.5001C37.9401 15.045 39.2801 14.635 40.4601 13.805C40.5601 13.745 40.6501 13.675 40.7401 13.605H44.96L45.63 11.735H42.41C42.64 11.345 42.84 10.925 43 10.475L43.62 8.77499H48.86C49.37 8.77499 49.78 8.98499 50.07 9.40499C50.36 9.82499 50.4201 10.275 50.24 10.765L48.98 14.225C48.76 14.815 48.4 15.295 47.9 15.645C47.3901 15.995 46.83 16.175 46.21 16.175H39.4L37.79 20.605H33.36L33.3601 20.605ZM48.23 20.605L51.8301 10.725C52.0401 10.125 52.4001 9.64499 52.9101 9.29499C53.4101 8.945 53.9801 8.77499 54.6201 8.77499H65.8601L61.5601 20.605H57.1001L58.7201 16.175H54.2801L52.6701 20.605H48.23ZM55.9 11.735L55.2201 13.605H59.6601L60.34 11.735H55.9ZM67.62 8.795L63.32 20.605H72.4201C73.87 20.605 75.1101 19.735 75.6 18.375L75.86 17.665H68.83L71.58 10.095C71.7 9.785 71.65 9.475 71.47 9.205C71.28 8.935 71 8.795 70.67 8.795H67.62L67.62 8.795Z" fill="#10C0BC"/>
<path fill-rule="evenodd" clip-rule="evenodd" d="M22.44 0.994995H41.39C42.25 0.994995 42.93 1.355 43.43 2.06499C43.92 2.77499 44.02 3.535 43.72 4.355L41.58 10.205C41.21 11.225 40.61 12.025 39.75 12.615C38.9 13.205 37.95 13.505 36.89 13.505H27.5L29.08 9.175H34.79L35.92 6.005H20.62L22.44 0.994995Z" fill="#10C0BC"/>
<path fill-rule="evenodd" clip-rule="evenodd" d="M10.94 0.994995C9.86002 0.994995 8.90002 1.29499 8.05002 1.88499C7.20002 2.47499 6.59002 3.27499 6.22002 4.29499L0.140015 21.005H13.06L14.88 15.995H9.49001L13.11 6.005H18.51L20.33 0.994995H10.94Z" fill="#10C0BC"/>
<path fill-rule="evenodd" clip-rule="evenodd" d="M17.89 13.505L15.17 21.005H20.29C21.74 21.005 22.98 20.135 23.48 18.775L25.39 13.505L26.97 9.17499H15.24L13.66 13.505H17.89L17.89 13.505Z" fill="#10C0BC"/>
</svg>
