<svg width="76" height="22" viewBox="0 0 76 22" fill="none" xmlns="http://www.w3.org/2000/svg">
<path d="M9.44082 0.550537C8.31752 0.550537 7.3069 0.860414 6.41953 1.47664C3.47218 3.34295 5.64836 8.11082 5.09551 9.09327L0.510748 17.2663C0.00719862 18.1607 0.0177624 19.1748 0.535397 20.0622C1.05655 20.946 1.93336 21.4496 2.96159 21.4496H11.6487L13.5502 16.2169H7.91961L11.705 5.78322H17.3462L19.2477 0.550537H9.44082Z" fill="#10C0BC"/>
<path fill-rule="evenodd" clip-rule="evenodd" d="M16.7018 13.6182L13.8531 21.4496H19.209C20.7267 21.4496 22.0155 20.5446 22.5367 19.1185L24.5368 13.6182L26.1812 9.09326H13.9341L12.2791 13.6182H16.7018Z" fill="#10C0BC"/>
<path d="M21.4521 0.550537H37.6994C38.6009 0.550537 39.3122 0.920276 39.8298 1.66328C40.3475 2.40627 40.4461 3.20561 40.1327 4.0613L37.9037 10.1743C37.5198 11.2307 36.886 12.0688 35.9951 12.6885C35.1077 13.3083 34.1112 13.6182 33.0055 13.6182H26.7411L28.3855 9.09327H30.8117L31.9949 5.78322H19.5505L21.4521 0.550537Z" fill="#10C0BC"/>
<path d="M29.1567 21.4391L31.3787 15.326H32.6041C34.1887 15.326 35.6641 14.8753 36.9635 13.9703C37.0656 13.8964 37.1677 13.826 37.2628 13.7485H41.9074L42.6434 11.692H39.0974C39.358 11.2589 39.5763 10.7941 39.7559 10.3046L40.4391 8.43481H46.1929C46.7528 8.43481 47.1965 8.66722 47.5169 9.12852C47.8409 9.58981 47.9007 10.0863 47.7071 10.618L46.3197 14.4211C46.0837 15.0796 45.6858 15.6007 45.133 15.9881C44.5801 16.3719 43.9604 16.5655 43.2737 16.5655H35.7944L34.0303 21.4391H29.1567ZM45.4992 21.4391L49.4501 10.5758C49.6896 9.92081 50.084 9.39614 50.6368 9.01231C51.1897 8.62849 51.8165 8.43481 52.5172 8.43481H61.1057C61.9931 8.43481 62.7572 8.83272 63.2678 9.55812C63.7749 10.2835 63.8875 11.1357 63.5847 11.9702L60.1444 21.4391H55.2497L57.021 16.5655H52.1475L50.3762 21.4391H45.4992ZM53.9257 11.692L53.1792 13.7485H58.0562L58.7992 11.692H53.9257ZM66.8067 8.45594L62.0811 21.4391H72.0746C73.6733 21.4391 75.029 20.4848 75.5748 18.9882L75.86 18.203H68.1307L71.1591 9.8856C71.2823 9.54755 71.2365 9.20246 71.0323 8.91019C70.8281 8.61792 70.5182 8.45594 70.159 8.45594H66.8067Z" fill="#10C0BC"/>
</svg>
