<svg width="76" height="21" viewBox="0 0 76 21" fill="none" xmlns="http://www.w3.org/2000/svg">
<path fill-rule="evenodd" clip-rule="evenodd" d="M33.22 19.61L35.24 14.05H36.36C37.8 14.05 39.14 13.64 40.32 12.81C40.42 12.75 40.51 12.68 40.6 12.61H44.82L45.49 10.74H42.27C42.5 10.35 42.7 9.93 42.86 9.48L43.48 7.78H48.72C49.23 7.78 49.64 7.99 49.93 8.41C50.22 8.83 50.28 9.28 50.1 9.77L48.84 13.23C48.62 13.82 48.26 14.3 47.76 14.65C47.25 15 46.69 15.18 46.07 15.18H39.26L37.65 19.61H33.22L33.22 19.61ZM48.09 19.61L51.69 9.73C51.9 9.13 52.26 8.65 52.77 8.3C53.27 7.95 53.84 7.78 54.48 7.78H65.7201L61.4201 19.61H56.96L58.58 15.18H54.14L52.53 19.61H48.09V19.61ZM55.76 10.74L55.08 12.61H59.52L60.2 10.74H55.76V10.74ZM67.48 7.8L63.18 19.61H72.28C73.73 19.61 74.97 18.74 75.46 17.38L75.72 16.67H68.69L71.44 9.10001C71.56 8.79 71.51 8.48001 71.33 8.21001C71.14 7.94001 70.86 7.80001 70.53 7.80001H67.48L67.48 7.8Z" fill="#10C0BC"/>
<path fill-rule="evenodd" clip-rule="evenodd" d="M22.3 0H41.25C42.11 0 42.79 0.360001 43.29 1.07C43.78 1.78 43.88 2.54 43.58 3.36L41.44 9.21C41.07 10.23 40.47 11.03 39.61 11.62C38.76 12.21 37.81 12.51 36.75 12.51H27.36L28.94 8.18H34.65L35.78 5.01H20.48L22.3 0V0Z" fill="#10C0BC"/>
<path fill-rule="evenodd" clip-rule="evenodd" d="M10.8 0C9.72 0 8.76 0.299999 7.91 0.889999C7.06001 1.48 6.45 2.28 6.08 3.3L0 20.01H12.92L14.74 15H9.35L12.97 5.01H18.37L20.19 0H10.8V0Z" fill="#10C0BC"/>
<path fill-rule="evenodd" clip-rule="evenodd" d="M17.75 12.51L15.03 20.01H20.15C21.6 20.01 22.84 19.14 23.34 17.78L25.25 12.51L26.83 8.17999H15.1L13.52 12.51H17.75L17.75 12.51Z" fill="#10C0BC"/>
</svg>
