<svg width="18" height="18" viewBox="0 0 18 18" fill="none" xmlns="http://www.w3.org/2000/svg">
<path fill-rule="evenodd" clip-rule="evenodd" d="M9.00014 0.48999C9.89014 0.48999 10.6101 1.20999 10.6101 2.08999C10.6101 2.46999 10.4801 2.80999 10.2601 3.08999C9.86015 2.96999 9.44015 2.89999 9.00014 2.89999C8.56014 2.89999 8.14014 2.96999 7.74014 3.08999C7.53014 2.80999 7.40015 2.46999 7.40015 2.08999C7.40015 1.20999 8.12014 0.48999 9.00014 0.48999Z" fill="#5B6684"/>
<path fill-rule="evenodd" clip-rule="evenodd" d="M11.21 14.3099C11.21 15.5199 10.22 16.5099 9.00005 16.5099C7.79005 16.5099 6.80005 15.5199 6.80005 14.3099H9.00005H11.21Z" fill="white" stroke="#5B6684" stroke-width="1.69" stroke-miterlimit="22.9256" stroke-linecap="round" stroke-linejoin="round"/>
<path fill-rule="evenodd" clip-rule="evenodd" d="M9.00009 14.31H3.80009C3.37009 14.31 3.11009 13.84 3.33009 13.47L4.60009 11.35V7.31003C4.60009 4.89003 6.58009 2.90002 9.00009 2.90002C11.4201 2.90002 13.4101 4.89003 13.4101 7.31003V11.35L14.6701 13.47C14.8901 13.84 14.6301 14.31 14.2001 14.31H9.00009Z" stroke="#5B6684" stroke-width="1.69" stroke-miterlimit="22.9256" stroke-linecap="round" stroke-linejoin="round"/>
<path fill-rule="evenodd" clip-rule="evenodd" d="M10.8601 6.88001C10.6701 6.04001 9.90009 5.39001 9.00009 5.39001C7.95009 5.39001 7.09009 6.26001 7.09009 7.31001V8.19001C7.09009 8.37001 7.17009 8.51001 7.31009 8.61001C7.46009 8.70001 7.62009 8.72001 7.78009 8.65001L10.5801 7.45001C10.8001 7.36001 10.9201 7.12001 10.8601 6.88001Z" fill="#10C0BC"/>
<path d="M1.61011 7.31002C1.61011 4.66002 3.01011 2.32002 5.12011 1.02002" stroke="#10C0BC" stroke-width="1.69" stroke-miterlimit="22.9256" stroke-linecap="round" stroke-linejoin="round"/>
<path d="M16.3901 7.31002C16.3901 4.66002 14.9901 2.32002 12.8801 1.02002" stroke="#10C0BC" stroke-width="1.69" stroke-miterlimit="22.9256" stroke-linecap="round" stroke-linejoin="round"/>
</svg>
