<svg width="16" height="16" viewBox="0 0 16 16" fill="none" xmlns="http://www.w3.org/2000/svg">
<path d="M7.23 15H3C1.9 15 1 14.1 1 13V3C1 1.9 1.9 1 3 1H13C14.1 1 15 1.9 15 3V7.23" stroke="#5B6684" stroke-width="1.7" stroke-miterlimit="22.9256" stroke-linecap="round" stroke-linejoin="round"/>
<path d="M9.46002 14.02C10.05 14.62 10.87 15 11.78 15C13.56 15 15 13.55 15 11.77C15 10.9 14.65 10.11 14.09 9.53" stroke="#5B6684" stroke-width="1.7" stroke-miterlimit="22.9256" stroke-linecap="round" stroke-linejoin="round"/>
<path fill-rule="evenodd" clip-rule="evenodd" d="M8.54999 11.77C8.54999 9.99 9.98998 8.55 11.78 8.55V11.77H8.54999Z" stroke="#10C0BC" stroke-width="1.7" stroke-miterlimit="22.9256" stroke-linecap="round" stroke-linejoin="round"/>
<path d="M4.45001 4.73H11.16" stroke="#10C0BC" stroke-width="1.7" stroke-miterlimit="22.9256" stroke-linecap="round" stroke-linejoin="round"/>
<path d="M4.45001 7.57001H6.58001" stroke="#5B6684" stroke-width="1.7" stroke-miterlimit="22.9256" stroke-linecap="round" stroke-linejoin="round"/>
</svg>
