<svg xmlns="http://www.w3.org/2000/svg" width="18.551" height="18.551" viewBox="0 0 18.551 18.551"><defs><style>.a{fill:#fbbb00;}.b{fill:#518ef8;}.c{fill:#28b446;}.d{fill:#f14336;}</style></defs><path class="a" d="M4.111,144.469l-.646,2.411-2.36.05a9.292,9.292,0,0,1-.068-8.661h0l2.1.385.92,2.089a5.536,5.536,0,0,0,.052,3.727Z" transform="translate(0 -133.258)"/><path class="b" d="M270.538,208.176a9.272,9.272,0,0,1-3.307,8.966h0l-2.647-.135-.375-2.338a5.528,5.528,0,0,0,2.379-2.823h-4.96v-3.669h8.91Z" transform="translate(-252.148 -200.633)"/><path class="c" d="M44.486,314.707h0a9.279,9.279,0,0,1-13.977-2.838l3.006-2.461a5.517,5.517,0,0,0,7.949,2.824Z" transform="translate(-29.404 -298.198)"/><path class="d" d="M42.783,2.135l-3,2.46a5.516,5.516,0,0,0-8.132,2.888L28.625,5.01h0A9.278,9.278,0,0,1,42.783,2.135Z" transform="translate(-27.587)"/></svg>