<svg width="17" height="17" viewBox="0 0 17 17" fill="none" xmlns="http://www.w3.org/2000/svg">
<path d="M5.311 9.63501H3.46101C2.80101 9.63501 2.241 9.84501 1.861 10.225C1.481 10.605 1.401 11.065 1.621 11.505L1.981 12.195C2.271 12.755 2.98101 13.115 3.82101 13.115H5.091C5.921 13.115 6.641 13.475 6.921 14.035L7.05101 14.285C7.34101 14.845 8.051 15.205 8.891 15.205H13.541C14.191 15.205 14.761 14.995 15.141 14.615C15.521 14.225 15.601 13.775 15.371 13.335L14.271 11.175" stroke="#10C0BC" stroke-width="1.7" stroke-miterlimit="22.9256" stroke-linecap="round" stroke-linejoin="round"/>
<path fill-rule="evenodd" clip-rule="evenodd" d="M10.3111 1.79492C8.40107 1.79492 6.85107 3.34491 6.85107 5.25491C6.85107 7.71491 8.96107 9.87492 10.3111 11.8049C11.7211 9.82492 13.7711 7.82491 13.7711 5.25491C13.7711 3.34491 12.2211 1.79492 10.3111 1.79492Z" stroke="#5B6684" stroke-width="1.7" stroke-miterlimit="22.9256" stroke-linecap="round" stroke-linejoin="round"/>
<path d="M10.3109 5.74492C10.7804 5.74492 11.1609 5.36435 11.1609 4.89491C11.1609 4.42547 10.7804 4.04492 10.3109 4.04492C9.84149 4.04492 9.46094 4.42547 9.46094 4.89491C9.46094 5.36435 9.84149 5.74492 10.3109 5.74492Z" fill="#5B6684"/>
</svg>
