<svg width="17" height="18" viewBox="0 0 17 18" fill="none" xmlns="http://www.w3.org/2000/svg">
<path fill-rule="evenodd" clip-rule="evenodd" d="M7.50372 1.50488H9.50372C9.77372 1.50488 10.0037 1.73488 10.0037 2.00488V2.93488L13.0037 4.67488L13.8037 4.20488C14.0437 4.06488 14.3537 4.15488 14.4937 4.38488L15.4937 6.11488C15.6237 6.35488 15.5437 6.66489 15.3037 6.80489L14.5037 7.26488V10.7349L15.3037 11.1949C15.5437 11.3349 15.6237 11.6449 15.4937 11.8749L14.4937 13.6149C14.3537 13.8449 14.0437 13.9349 13.8137 13.7949L13.0037 13.3249L10.0037 15.0649V15.9949C10.0037 16.2649 9.77372 16.4949 9.50372 16.4949H7.50372C7.22372 16.4949 7.00372 16.2649 7.00372 15.9949V15.0649L4.00372 13.3249L3.19371 13.7949C2.95371 13.9249 2.65372 13.8449 2.51372 13.6149L1.51372 11.8749C1.37372 11.6449 1.45371 11.3349 1.69371 11.1949L2.50372 10.7349V7.26488L1.69371 6.80489C1.46371 6.66489 1.38372 6.35488 1.51372 6.11488L2.51372 4.38488C2.65372 4.15488 2.95371 4.06488 3.19371 4.20488L4.00372 4.67488L7.00372 2.93488V2.00488C7.00372 1.73488 7.22372 1.50488 7.50372 1.50488Z" stroke="#5B6684" stroke-width="1.7" stroke-miterlimit="22.9256" stroke-linecap="round" stroke-linejoin="round"/>
<path d="M8.50391 11.9949C10.1608 11.9949 11.5039 10.6517 11.5039 8.99487C11.5039 7.33802 10.1608 5.99487 8.50391 5.99487C6.84705 5.99487 5.50391 7.33802 5.50391 8.99487C5.50391 10.6517 6.84705 11.9949 8.50391 11.9949Z" stroke="#5B6684" stroke-width="1.7" stroke-miterlimit="22.9256" stroke-linecap="round" stroke-linejoin="round"/>
</svg>
