<svg width="23" height="18" viewBox="0 0 23 18" fill="none" xmlns="http://www.w3.org/2000/svg">
<path d="M18.345 16.49H20.695V15.14C20.695 14.04 19.795 13.14 18.695 13.14H17.015M11.505 12.28V9.86001M11.505 9.86001C13.805 9.86001 15.675 7.99001 15.675 5.68001C15.675 3.38001 13.805 1.51001 11.505 1.51001C9.19497 1.51001 7.32497 3.38001 7.32497 5.68001C7.32497 7.99001 9.19497 9.86001 11.505 9.86001ZM15.875 16.49H7.12497M4.81497 13.14V10.78M4.81497 10.78C5.29497 10.78 5.75496 10.68 6.16496 10.5M4.81497 10.78C2.98497 10.78 1.49496 9.30001 1.49496 7.47001C1.49496 5.63001 2.98497 4.14001 4.81497 4.14001M4.02496 16.49H1.33496M4.66496 16.49H2.31497V15.14C2.31497 14.04 3.20496 13.14 4.30496 13.14H5.98497M18.195 13.14V10.78M18.195 10.78C17.705 10.78 17.255 10.68 16.845 10.5M18.195 10.78C20.025 10.78 21.505 9.30001 21.505 7.47001C21.505 5.63001 20.025 4.14001 18.195 4.14001M18.985 16.49H21.665M14.645 16.49H8.35497V14.28C8.35497 13.18 9.25497 12.28 10.355 12.28H12.655C13.755 12.28 14.645 13.18 14.645 14.28V16.49Z" stroke="#5B6684" stroke-width="1.7" stroke-miterlimit="22.9256" stroke-linecap="round" stroke-linejoin="round"/>
<path fill-rule="evenodd" clip-rule="evenodd" d="M10.8551 5.08012L10.1851 5.57012V4.05012L11.1151 3.37012H12.1651V7.96012H10.8551V5.08012Z" fill="#DF3F61"/>
</svg>
