<svg width="16" height="16" viewBox="0 0 16 16" fill="none" xmlns="http://www.w3.org/2000/svg">
<path fill-rule="evenodd" clip-rule="evenodd" d="M3.76999 1H12.23V6.89C12.23 9.22 10.33 11.12 8 11.12C5.67 11.12 3.76999 9.22 3.76999 6.89V1V1Z" stroke="#5B6684" stroke-width="1.7" stroke-miterlimit="22.9256" stroke-linecap="round" stroke-linejoin="round"/>
<path d="M12.23 2.26001H15C14.71 7.28001 14.18 8.26001 12.19 8.77001" stroke="#5B6684" stroke-width="1.7" stroke-miterlimit="22.9256" stroke-linecap="round" stroke-linejoin="round"/>
<path fill-rule="evenodd" clip-rule="evenodd" d="M5.39999 13.02H8H10.6L11.83 15H8H4.17001L5.39999 13.02Z" stroke="#5B6684" stroke-width="1.7" stroke-miterlimit="22.9256" stroke-linecap="round" stroke-linejoin="round"/>
<path d="M8 13.01V11.88" stroke="#5B6684" stroke-width="1.7" stroke-miterlimit="22.9256" stroke-linecap="round" stroke-linejoin="round"/>
<path d="M3.76999 2.26001H1C1.28 7.28001 1.82 8.26001 3.81 8.77001" stroke="#5B6684" stroke-width="1.7" stroke-miterlimit="22.9256" stroke-linecap="round" stroke-linejoin="round"/>
<path fill-rule="evenodd" clip-rule="evenodd" d="M9.23999 7.27998L8 6.59998L6.76001 7.27998L7.03 5.88998L6 4.92998L7.39999 4.74998L8 3.47998L8.60001 4.74998L10 4.92998L8.97 5.88998L9.23999 7.27998Z" fill="#10C0BC"/>
</svg>
